<svg id="Layer_1" data-name="Layer 1" xmlns="http://www.w3.org/2000/svg" viewBox="0 0 1591.96 1092.07"><defs><style>.cls-1{fill:#3a3e41;stroke:#3a3e41;}.cls-1,.cls-2,.cls-3,.cls-4{stroke-miterlimit:10;}.cls-2{fill:#eeebd3;stroke:#eeebd3;}.cls-3{fill:#69995d;stroke:#69995d;}.cls-4{fill:#af3124;stroke:#af3124;}.cls-5{font-size:216.05px;fill:#8bcde9;font-family:Verdana-Bold, Verdana;font-weight:700;}</style></defs><title>logo</title><rect class="cls-1" x="363.48" y="0.5" width="865" height="745"/><rect class="cls-2" x="390.98" y="28" width="90" height="90"/><rect class="cls-3" x="510.98" y="28" width="90" height="90"/><rect class="cls-2" x="630.98" y="28" width="90" height="90"/><rect class="cls-3" x="750.98" y="28" width="90" height="90"/><rect class="cls-2" x="870.98" y="28" width="90" height="90"/><rect class="cls-2" x="990.98" y="28" width="90" height="90"/><rect class="cls-3" x="1110.98" y="28" width="90" height="90"/><rect class="cls-2" x="390.98" y="148" width="90" height="90"/><rect class="cls-3" x="510.98" y="148" width="90" height="90"/><rect class="cls-2" x="630.98" y="148" width="90" height="90"/><rect class="cls-3" x="750.98" y="148" width="90" height="90"/><rect class="cls-2" x="870.98" y="148" width="90" height="90"/><rect class="cls-2" x="990.98" y="148" width="90" height="90"/><rect class="cls-3" x="1110.98" y="148" width="90" height="90"/><rect class="cls-2" x="390.98" y="268" width="90" height="90"/><rect class="cls-3" x="510.98" y="268" width="90" height="90"/><rect class="cls-2" x="630.98" y="268" width="90" height="90"/><rect class="cls-4" x="750.98" y="268" width="90" height="90"/><rect class="cls-3" x="870.98" y="268" width="90" height="90"/><rect class="cls-2" x="990.98" y="268" width="90" height="90"/><rect class="cls-3" x="1110.98" y="268" width="90" height="90"/><rect class="cls-2" x="390.98" y="388" width="90" height="90"/><rect class="cls-3" x="510.98" y="388" width="90" height="90"/><rect class="cls-2" x="630.98" y="388" width="90" height="90"/><rect class="cls-3" x="750.98" y="388" width="90" height="90"/><rect class="cls-2" x="870.98" y="388" width="90" height="90"/><rect class="cls-2" x="990.98" y="388" width="90" height="90"/><rect class="cls-4" x="1110.98" y="388" width="90" height="90"/><rect class="cls-3" x="390.98" y="508" width="90" height="90"/><rect class="cls-3" x="510.98" y="508" width="90" height="90"/><rect class="cls-2" x="630.98" y="508" width="90" height="90"/><rect class="cls-3" x="750.98" y="508" width="90" height="90"/><rect class="cls-2" x="870.98" y="508" width="90" height="90"/><rect class="cls-2" x="990.98" y="508" width="90" height="90"/><rect class="cls-3" x="1110.98" y="508" width="90" height="90"/><rect class="cls-2" x="390.98" y="628" width="90" height="90"/><rect class="cls-3" x="510.98" y="628" width="90" height="90"/><rect class="cls-2" x="630.98" y="628" width="90" height="90"/><rect class="cls-3" x="750.98" y="628" width="90" height="90"/><rect class="cls-2" x="870.98" y="628" width="90" height="90"/><rect class="cls-2" x="990.98" y="628" width="90" height="90"/><rect class="cls-3" x="1110.98" y="628" width="90" height="90"/><text class="cls-5" transform="translate(0 1026.56)">Week-Strong</text></svg>